<?xml version="1.0" encoding="UTF-8"?>
<svg width="24px" height="24px" viewBox="0 0 24 24" version="1.1" xmlns="http://www.w3.org/2000/svg">
    <g stroke="none" stroke-width="1" fill="none" fill-rule="evenodd">
        <path d="M12,2 C11.4477153,2 11,2.44771525 11,3 L11,4 L10,4 C9.44771525,4 9,4.44771525 9,5 C9,5.55228475 9.44771525,6 10,6 L11,6 L11,8.063 C9.87577435,8.27843256 9,9.27433244 9,10.5 C9,11.4593595 9.54764499,12.3015467 10.3613281,12.7285156 L9,18 L7,18 C6.44771525,18 6,18.4477153 6,19 C6,19.5522847 6.44771525,20 7,20 L17,20 C17.5522847,20 18,19.5522847 18,19 C18,18.4477153 17.5522847,18 17,18 L15,18 L13.6386719,12.7285156 C14.452355,12.3015467 15,11.4593595 15,10.5 C15,9.27433244 14.1242256,8.27843256 13,8.063 L13,6 L14,6 C14.5522847,6 15,5.55228475 15,5 C15,4.44771525 14.5522847,4 14,4 L13,4 L13,3 C13,2.44771525 12.5522847,2 12,2 Z M12,9 C12.5522847,9 13,9.44771525 13,10 C13,10.5522847 12.5522847,11 12,11 C11.4477153,11 11,10.5522847 11,10 C11,9.44771525 11.4477153,9 12,9 Z" fill="#FFFFFF"/>
        <circle cx="12" cy="10" r="1" fill="#FFFFFF"/>
        <path d="M8,20 L16,20 C16.5522847,20 17,19.5522847 17,19 C17,18.4477153 16.5522847,18 16,18 L8,18 C7.44771525,18 7,18.4477153 7,19 C7,19.5522847 7.44771525,20 8,20 Z" fill="#FFFFFF"/>
    </g>
</svg>